<mxfile host="app.diagrams.net" agent="Mozilla/5.0 (Windows NT 10.0; Win64; x64) AppleWebKit/537.36 (KHTML, like Gecko) Chrome/126.0.0.0 Safari/537.36" version="24.7.4">
  <diagram name="Page-1" id="e3a06f82-3646-2815-327d-82caf3d4e204">
    <mxGraphModel dx="1163" dy="583" grid="1" gridSize="10" guides="1" tooltips="1" connect="1" arrows="1" fold="1" page="1" pageScale="1.5" pageWidth="1169" pageHeight="826" background="none" math="0" shadow="0">
      <root>
        <mxCell id="0" style=";html=1;" />
        <mxCell id="1" style=";html=1;" parent="0" />
        <mxCell id="4Yu0JL-Y8x3OvqKyGdus-108" value="" style="shape=note;size=20;whiteSpace=wrap;html=1;shadow=0;dashed=0;sketch=0;pointerEvents=1;align=center;verticalAlign=top;fontFamily=Helvetica;fontSize=12;fontColor=default;fillColor=#FFFFFF;" vertex="1" parent="1">
          <mxGeometry x="1569" y="98" width="80" height="99" as="geometry" />
        </mxCell>
        <mxCell id="4Yu0JL-Y8x3OvqKyGdus-107" value="" style="shape=note;size=20;whiteSpace=wrap;html=1;shadow=0;dashed=0;sketch=0;pointerEvents=1;align=center;verticalAlign=top;fontFamily=Helvetica;fontSize=12;fontColor=default;fillColor=#FFFFFF;" vertex="1" parent="1">
          <mxGeometry x="1560" y="110" width="80" height="99" as="geometry" />
        </mxCell>
        <mxCell id="4Yu0JL-Y8x3OvqKyGdus-16" value="" style="points=[[0.35,0,0],[0.98,0.51,0],[1,0.71,0],[0.67,1,0],[0,0.795,0],[0,0.65,0]];verticalLabelPosition=bottom;sketch=0;html=1;verticalAlign=top;aspect=fixed;align=center;pointerEvents=1;shape=mxgraph.cisco19.user;fillColor=#666666;strokeColor=none;" vertex="1" parent="1">
          <mxGeometry x="70" y="140" width="90" height="90" as="geometry" />
        </mxCell>
        <mxCell id="4Yu0JL-Y8x3OvqKyGdus-17" value="" style="points=[[0.35,0,0],[0.98,0.51,0],[1,0.71,0],[0.67,1,0],[0,0.795,0],[0,0.65,0]];verticalLabelPosition=bottom;sketch=0;html=1;verticalAlign=top;aspect=fixed;align=center;pointerEvents=1;shape=mxgraph.cisco19.user;fillColor=#666666;strokeColor=none;" vertex="1" parent="1">
          <mxGeometry x="60" y="294" width="90" height="90" as="geometry" />
        </mxCell>
        <mxCell id="4Yu0JL-Y8x3OvqKyGdus-18" value="" style="points=[[0.35,0,0],[0.98,0.51,0],[1,0.71,0],[0.67,1,0],[0,0.795,0],[0,0.65,0]];verticalLabelPosition=bottom;sketch=0;html=1;verticalAlign=top;aspect=fixed;align=center;pointerEvents=1;shape=mxgraph.cisco19.user;fillColor=#666666;strokeColor=none;" vertex="1" parent="1">
          <mxGeometry x="55" y="461" width="90" height="90" as="geometry" />
        </mxCell>
        <mxCell id="4Yu0JL-Y8x3OvqKyGdus-24" value="" style="shape=image;verticalLabelPosition=bottom;labelBackgroundColor=default;verticalAlign=top;aspect=fixed;imageAspect=0;image=https://blog.nlnetlabs.nl/content/images/size/w600/2022/09/Unbound_FC.png;" vertex="1" parent="1">
          <mxGeometry x="555.7199999999999" y="390" width="210.53" height="80" as="geometry" />
        </mxCell>
        <mxCell id="4Yu0JL-Y8x3OvqKyGdus-27" value="" style="shape=image;verticalLabelPosition=bottom;labelBackgroundColor=default;verticalAlign=top;aspect=fixed;imageAspect=0;image=data:image/jpeg,/9j/4AAQSkZJRgABAQEAYABgAAD/2wBDAAMCAgMCAgMDAwMEAwMEBQgFBQQEBQoHBwYIDAoMDAsKCwsNDhIQDQ4RDgsLEBYQERMUFRUVDA8XGBYUGBIUFRT/2wBDAQMEBAUEBQkFBQkUDQsNFBQUFBQUFBQUFBQUFBQUFBQUFBQUFBQUFBQUFBQUFBQUFBQUFBQUFBQUFBQUFBQUFBT/wAARCABAASwDASIAAhEBAxEB/8QAHwAAAQUBAQEBAQEAAAAAAAAAAAECAwQFBgcICQoL/8QAtRAAAgEDAwIEAwUFBAQAAAF9AQIDAAQRBRIhMUEGE1FhByJxFDKBkaEII0KxwRVS0fAkM2JyggkKFhcYGRolJicoKSo0NTY3ODk6Q0RFRkdISUpTVFVWV1hZWmNkZWZnaGlqc3R1dnd4eXqDhIWGh4iJipKTlJWWl5iZmqKjpKWmp6ipqrKztLW2t7i5usLDxMXGx8jJytLT1NXW19jZ2uHi4+Tl5ufo6erx8vP09fb3+Pn6/8QAHwEAAwEBAQEBAQEBAQAAAAAAAAECAwQFBgcICQoL/8QAtREAAgECBAQDBAcFBAQAAQJ3AAECAxEEBSExBhJBUQdhcRMiMoEIFEKRobHBCSMzUvAVYnLRChYkNOEl8RcYGRomJygpKjU2Nzg5OkNERUZHSElKU1RVVldYWVpjZGVmZ2hpanN0dXZ3eHl6goOEhYaHiImKkpOUlZaXmJmaoqOkpaanqKmqsrO0tba3uLm6wsPExcbHyMnK0tPU1dbX2Nna4uPk5ebn6Onq8vP09fb3+Pn6/9oADAMBAAIRAxEAPwD9U6KKKACimhgaXPtigBaKbu9qWgBaKbuFAkDZ9utADqKbuoLYz7UAOopu4UbqAHUUmaTdzigB1FJuHrSbvbvQA6ik3D1pN1ADqKKbu9qAHUU0t+NLQAtFN3daC+Pp9aAHUU3d7UbqAHUU3dRv/LvQA6imeZ3PSk830GaAJKKbu44GaTzPagB9FM8wc+3XmjzOM9KAH0VGZMdqkoAKKKKACiiigD4x/aC+PXjzwT8Xdf0XRdfaz022+z+VD9mhfbut43blkJ5Zj+dcBa/tVfE23uBI3iMT4H+rlsoNv5LGPb8/Xij9qz/kvnij/t1/9JIq6L4Y+A/DXiL9mvxtqurQW8WpadczzWl82FlSRYImRAe4ZgRt6nPTNAHsHwB/ak/4WJq0XhzxFbQ2WtzKTa3VvxDcEDJQgk7ZMZI5IOD+Pqvxa+KGn/Cbwfc63ep582RFa2iuFa4mPRAT0GASTg4AJwelfm1pGqXWhatY6nZv5d5ZXCXMMmN22RG3Kcd8HHHsK96/bY8TSal8SLDRg+620qzV/L6gSyksxI9dqx/56gHHeKv2mviH4o1CS4TX5tIhJylppv7pIxxxnlj9Sa7v4Nftca9pWtW2m+Mrn+1NGnZUN9IirNa56MSuNyjvkZA5z2pf2TfgpoXxEstc1rxJY/2jZW8q2dtC0jIu/bukYhSDkBkx9a8Q+IXhlfBvjjXtFDM0NjeSwxmTkmMP8hPHJI5PvQB9j/tWeOfFngHQdA1rwvrP9nW0lw9tdBYYpfNLqGibLq2APLfp13VyP7K/xw8XfEDx/f6R4k1f+0bf+znuIA0EUeyRZIxgbFGcq5/75pswuPiV+xXvl/f6hosYYOx5VbaXBP1EGRmvI/2VdS/s344+HuWCXAngbHQ7oXwD+IWgDvf2gP2hPG3hX4ta1o3h/XTYabY+TGsS28MmWMSuxy6E9WI/CvafhH8TNR8Rfs/3HirUro3uq2dtevPIFRSWi3svyqoUfKF7d6+JfihqQ1n4leKL1X8xZtTuWVs5ynmHGD6Yx+Ve1/AfxMtr+zj8U9Pd2Q2qSTK+7vPD5YX2y0Z/769qAOK0v9pL4ratqdnYweKJGnupkhRRZW5O5mAA/wBX6kV6t+1D8Z/Gvw6+Ilrpega41hZNpsU7R/ZoZMyF5ATl0J/hH5V4r+zj4bHib40eF4HVjFb3P21yO3kgyKfpvVR+Ndr+2x/yVyz/AOwRCP8AyLLQByo/ak+KB/5mmT/wCt//AI3X0T8H/id4l8T/ALP/AIu8R6nqjXesaet59mufJjQp5durL8qqAcMe47V45+zdo/ww1LR9abx7LpaXK3CfZhf3hhOwpzjDjNfSd7o/hPR/gP4t/wCEKW2/sOfS76RHspjLG7+UysQxY91x17UAfI3/AA1J8UMZ/wCErYj1+x2+On/XOtfw/wDtffETR7pWvb201uAtlobu2RCw9A0e3+Rryjwrbx3nirRYJ4/NhlvreN43H31Mqgj8q9h/a28A+HvAnjTSl0Cyi0xL60aWe2t/lQMHwGC5wuRnoO1AH2B8L/iZpnxU8I22u6aGiDHyrm2kOWt5gAWjY98BgQe4IPtXx78Qv2jviNoXj/xRptj4kaGys9Vu7eCL7JA2yNJmVRkoTwK7X9hW+nW/8XWQRmtDHbzFuyvlwAB7g/8Ajg9K8B+LH/JVPGn/AGG77/0e9AHoPh/9rz4i6RdK95f2utQbtzw3VqiZHoGjVcfXmvrn4PfGXSfjFoEt9YRPZ3tswS7sJmDPCxGQcj7ynBw2BnB6V8q/ED4D6VpfwB8NePNJ86G+Nnay6jG0heOTzQo8xQfukO6dOMHpxXO/sveMJfCfxi0aMTMlpqjHTrhMcNvH7sfUSBee2SO9AHsH7U3xm8ZfDv4gWWm+HtabTrKTT452jFvFJly8gJy6k9FH5Vtfsm/GjXviLf6/pnibVRqN7DHHcWm6KONvLyVk+4ozgmP868w/bb/5Kpp//YJj/wDRsteY/Bfxsnw9+J2g61NKYbSO48m5bJA8mQFHJ9gDu+qLQB6l8Zv2gviD4V+KPiPSNL8RNa6faXWyGH7JA+wBQcZaMnvX0d8KfiFLP8DdO8X+KL/zZEtZri7uiipkJI44AAGcLgD1r4t/aEbd8avFx/6ffzyq8/rXsviSS6X9h3Rhb7vIaSMXRXtGLt8f+RPLB/GgDzrx/wDtTeNvF2tTzaXqk/h3S1ciCzsyquF7F3xlmxjuAM9K9I/ZV+M3jDxb48Oga5q8mq6e1lJMpuEBkVkKgYcAEjnnrXzn4Al0C38aaNJ4niabQFuEF3GhP3CcZOOSoOM49K+7/Bfwb8HaL4usvG3g/wAu2guLWSJ47KXzLaZHwRInJw3A4HHPTigDL+P3xnuvh8tto+kbE1i6i84zuu4QxZKhgOhJIbr6V4Bpvxy8caZfpdDxBc3RU5MN0fMjb2K/4Yr0b9q7wlqL67p/iRITJpxtVs5WQZMUiu5Ut6A7+PpXz8Ocd8noOv5V/N/FmaZpSzepBVJQjG3Kk2la2/nc/fuGcsy6plUJ+zjNyT5m0m731Xlb/g9T7i8F/Fiz8Q/DSXxXdL5K2cUhvYY+SkiDLAD3BBH1FfL/AIm+P3jPxFqT3EerTaXBk+Xa2R2Ko9CerfjXtHw3+FmqR/AXWdGuVNvqOteZdRwyfKYyURY1b0z5YPtu9q+V7i1ls7qW3uY2t5422PHIpVlbPQg9DXpcUZpm0cJglUk4c0LytpeXn8rO3mefw3luVyxWM9mlPllZX1tHyv53V/I+lP2f/jnqniLXYvDniK5F5PcKxs7xlAbcq7mRsDByATnjpin/AB9+O+p+G9ak8OeHZRa3ECq13e4DMrMM7FBGM4wc+/SvOv2b/CN9r3xEs9TjiZdP0pmlnlPCl9hCoPU5IJ9h70v7SHg+/wBD+IF5qssLnTtUKyw3H8IfaoZD6Ebc1p/a2cf6s+25n8dubryW7+ulyP7Lyr/WP2PKvgvy9Oe/bvbWxl+Gfj54z8O6ol1Jq82qQ8CS1vW3owHoeqn3FfZfhXxNB4t8O6fq9qhWC8hWUKxyUyOVPuDx+FfnpBbS3VxHBbxtPPI2xIo1LOzegUck195/Crw9c+FPh7oel3g2XcMA82Pj5XYlivHXBOM98V6PAOPx+Iq1qVeblTSvrrZ36PzV/uODjfA4LD0qVWjFRqN2stLq3bydtTsaKKK/aT8jCiiigD88v2rP+S+eKP8At1/9JIq8vXVLxNNawW9nXT2lEzWomYQmQAYcpnG4DFen/tWN/wAX88T9AP8ARep/6dIq95/Yl062uvhzrEk9rFK41Z1WSSMMQvkxcZP1oA8d/Zv+Ber+NvF2na5qNhNa+HdPnW5aadSn2l0bKxqp5IJ6nGKpftaWMtt8dNbkf7tzFbSx/wC6IVT+aN+VfoEE7dq+Tv23Ph7PN/ZXjO1h8yCKP7DfFesYyWic/wCzlmUnsWX14AOo/YfmVvhbrEfR11qUsCMcGCDB/Ifoa+Yvj1Osvxj8YPGQUF/IMgk8jg9fp096s/Bv446x8GZtU/s6ztr+3v4182G5LBVdAQjgg/7RyO/HIriZptS8XeIJJiJL/VtSui2EGXmnkfPygerHp/iBQB9n/sl6GNV+A1/Y3i5tNSurqLA6GNkWNv13V8j+C9Yk+HfxG0u/v4Win0i/H2iHHzKUba4I9sGv0M+Evgo/Dz4d6HoEjCSe1g/0h1bKmZiXkIPpvJxXwf8AtB6ONC+NHi23AYCW9a6Az/z1Ak/mxoAsfAjwe/jfVvE9sy+fJH4evpEZ+cSldqN7/Mwrn/C/jP8AsPwX4x0Muy/21DaqnHBaK4V8H0+QvXuf7DOjx3mu+ML51yYbS3tgOcbZWkYj/wAhCvnHxJpT+H/EmraXKQZrG7mtH29N0blD+oNAHv37DuivefEDXNUIBisdOEPTo8si7f0ik/Os/wDbX/5K5Z/9gmH/ANGy16h+w3oKWvgnxBrG395eX62+f9mKMEfrK3615h+2v/yVyy99Jh7/APTSWgDyrwb8LfFXxCtri48P6PLqkVu2yWSJ4xsYjIHzMO1fYXgzwxqng/8AZQ1bSNas2sNRt9K1PzIHYMVDGZhypPYivmL4Q/H7Wvg7p9/aaZp1jex3kqyyG7D5BC7eNrCvpvwt8VL/AOLn7PPjjWdRtLeznjtL62EdqG2bRbbgfmJ/vUAfD+lR3UupWcen7vt7TotvsOD5hbC4J6c1c8Qa5q/ijXHudf1C4utQY+VJPfM26MBvun+7j5uMUvg0/wDFYaCSFI/tC2PXIH71fevQf2oPBh8GfGDWNiqtpqmNSh2k9JCd4b/tor4A9R68AH1/8B/g/Z/CDwi1olwt/qd8yzX14mQjsB8qpn+BcnHrknvivhL4sf8AJVPGn/Ybvv8A0e9fZ/7KfxKXx18M7fTriQtqmhBbKZWPzNFj9zJ9CoK57mMmvi/4sN/xdTxpwf8AkN33Hf8A4+H5oA+svFVzDa/sU2jS4ZW0GxjVcZyS0QXA+pH5Z7V8ofCG3e5+K3g5Y95f+2rRvlHQCdGJ/DFX/Fnxl8QeLPAuh+EZ/IttE0qGOJIrdGDXBjXarSMx54zwOM49K9F/Y5+HNz4k8ff8JPMm3StFBCSEcSXDqVVR2O1csT1HycfNkAD/ANtv/kqmn/8AYJj/APRsteQ/8Il5nwxXxOhbcusPpk2DxhrdJI/pyHH1YV69+23/AMlU0730mP8A9Gy/41ufs9+CV+In7OfjzQxH5lxPqDPbBiMidIYnjOf94AZ9M0AfNutazd+INSkv76TzrqQIHk/vbUCA/kK+8vgX4fsfFf7N2h6PqcSz2N9aTwzJ6q00nQ+o657EZr8/xz/X26/4V9X33iXU/B/7IvgjV9Hu5LLULa+DRyx4PHmTgg54IPcUAeM/Gr4I6v8ABzWtk4kvNEuZCLPUgPlfP/LN/wC7JgHjoe3fHdfsdfEe+0Xx9F4TluJJNJ1ZZPJt2JKwzqhk3KP4QVDA4xnI9KxviZ+1HrPxO8Dnw7eaNY2QmdDc3MTMxcqwYbFP3Og5y3GRxmm/sj+G7nXPjPp17GdsGjxTXU7ezRtEFz7mQH/gLelAH2P8TPiFofw/0PztbBuRcExxWKoHe4OOQAeMDjk+o9RXz/4b+OHgzTdeW6f4dWdhGW/4+rcrJLF7hSgH5YqL9rRbg/EDTvNWQ2x05PJ3fc3ea+/HbP3c/wDAfavFMbfQc8Y54r8A4m4lxlHNZUqKilSdleMZN7a3abXysft/DnDuDq5ZGrVcm6qu7SaS1fRaO3nc/Q7R9este0m21axnjm0+5j8yOdTwV55OemMH6V85/EP46eCdW1hvK8FWviLYdh1C6KxeaB/dwpLL/vY+lWvhiNX/AOGafFnlrMNz3Btsnkw+Wm/b+Pm9O9fOXUkck9+mfqa7+JOJsX9TwqpQUfaxU3dJ/Jc1157X1Rw8P8OYX63iXUm5ezlyqza87vls+y3toz7U+C/xO8OeNdMm07R9Pj0O4s1DvpyhQu0/xoQBuGe+M8j1FSfGL4oeHPBOmCw1eyXWru6QtHpmFO5ezOT90Z4z9fQ4+avgCt1/wtzQPsfmEiSXzCo48ry23Zx2xjHuB6CpP2gVuf8Aha2u/aQ+C0fl+Z/zz8tcY9v/AK1af614v/V72/Iufm9ney5bWvfl2v0tt+RH+rGE/t72HO+Tl57X97e1r77633t953fw9+OXgrR9aUyeCrbw+XOwX9qVlMQP97Kghf8Ad/Kvpu1uI7y1ingkWWGRQ8ciEEMpGQQe+RX5yjtjIPb/ABFfc/wPW4X4U+Ghc5D/AGUbM/8APPJ2fht212cC55icdOpg6yVormTUVHrazUUl+Hc4+Msmw+ChTxdFu7fK02303Td366nfUUUV+wH5aFFFFAHh3xG/ZR0P4keM9R8R3mtaha3N75e6GBU2LsjSMYyM9E/Wu1+EPwjsPg9oN5pWn31xfxXN0bppLlVDBiiLj5QP7n613lFABVPUtKtdZsLmxvoIruzuEMc0EybkdT1BBq5RQB81+J/2H/Dmp6kbjRdbvNEt25+yvELlUP8AssWDD8Sa7b4T/sy+F/hTqC6rDJcavrSKVjvbzGIQRg+Wg4Ukdzk9eeTXr1FADdvfNeN/FT9mHQ/ip4rfXrvVL3T7h7dIHjtVQh9ucMdwPOCB/wABr2aigDzn4O/BHS/gza6pDpt7c3zag8byyXIUEBAQoG0D+8351wviz9jnw54s8UaprUutajayahcyXTwwrHtV3bc2MjPUn86+gKKAOT+GPw7s/hf4Ns/DtjcS3UFs8rieYASOXkZ8nHpux+Ariviz+zVo/wAXPE8Wtahq19ZTR2y2wjt1QrtDOc/MD/f/AEr2GigD5p/4YX8M/wDQxat/3xF/8TXpngv4G6b4J+HOteELbUbq5tNUE4kuJgvmJ5sYjbGBjoK9KooA+c9K/Yo8OaTqtlfJ4h1WSS1njnRXWPBZWDc/L7V3Xxi/Z/0b4y3Ol3F/fXWnXFikiCS0CEyKxBAbcD0IOMf3jXqVFAHj/wAJv2b9N+EPiKXVdN13ULvzrdraW3uAmxwWDBjgD5gV4PoT61zXiT9jPw94m8RatrE+vanFPqN3NeSJGI9qtI5YgZHTmvoWigD540f9iTwXY3azXuo6tqSDrC0qRo31KqG/IivdNC8N6b4Z0uDTdJs4dPsIBiO3t12quTkn6k9T15rTooA8g+Lf7Nuj/F7xHBrGoatfWM0VstsI7cIVKhmbPzA/3v0rofg/8ILD4O6HfaZp99c30d1dG6aS52hg2xVxwOny/rXfUUAfPfiT9jHwz4i8Qalqv9s6lZG+uZLloIVj2IzsWIGV6ZPSu1u/gDoepfCmx8B3l5ey6dZv5kV0hVJt252BPykfxnt2r0+igD5aH7COm/atx8X3htyfmj+xpvIznG7djpx0r3X4cfCvw/8ACvR20/QbZohId09zK26aducM7Y56n25PFdhRQByXxC+GWjfEjSVstUjYNExeC4jOJIWPcH0Pcd8D0FeTab+x7psGoLJfeI7i7swcmCK2ETsPQvvP6AV9DUV4GNyHLMxrLEYqipTXXVffZq/zue3g87zHAUnQw1Zxi+mn4X2+VjN0nQLPQ9Jt9MsoEt7G3Ty44UX5Qvp/OvFfE37I+j6rqUlzpOszaPBI242rQCZFz1C/MpA/OvfKK3x2T4DMqcaWKpKUY7bq3o1Zr0McHmuNy+pKrhqri5b9b+qd0zz74X/BjR/hfDcSWksl9qNwAJr24ADED+FQPur3x/8AWp3xM+DOjfEyGNrt5LPUYRtivoQN4XOdpH8S+3+Jz39FV/ZOB+qfUfZL2X8v9a389yf7Txn1r677V+179f8AhvLY8E8N/sk6RpupR3GrazNq9vG24WqweQj+znexI9hivdLe0S1hjhiVY4o1CIijAVRwAAPap6KWX5Rgcqi4YKkoX33bfzbb/EeOzTGZlJTxdRya26JfJWQUUUV655Z//9k=;" vertex="1" parent="1">
          <mxGeometry x="560" y="650" width="206.25" height="44" as="geometry" />
        </mxCell>
        <mxCell id="4Yu0JL-Y8x3OvqKyGdus-28" value="" style="shape=image;verticalLabelPosition=bottom;labelBackgroundColor=default;verticalAlign=top;aspect=fixed;imageAspect=0;image=https://www.isc.org/images/Bind_9_ISC_Blue_320x320.png;" vertex="1" parent="1">
          <mxGeometry x="574.3800000000001" y="116.5" width="177.49" height="137" as="geometry" />
        </mxCell>
        <mxCell id="4Yu0JL-Y8x3OvqKyGdus-29" value="" style="shape=image;verticalLabelPosition=bottom;labelBackgroundColor=default;verticalAlign=top;aspect=fixed;imageAspect=0;image=https://www.isc.org/images/Bind_9_ISC_Blue_320x320.png;" vertex="1" parent="1">
          <mxGeometry x="1071.26" y="170" width="177.49" height="137" as="geometry" />
        </mxCell>
        <mxCell id="4Yu0JL-Y8x3OvqKyGdus-30" value="" style="shape=image;verticalLabelPosition=bottom;labelBackgroundColor=default;verticalAlign=top;aspect=fixed;imageAspect=0;image=data:image/jpeg,/9j/4AAQSkZJRgABAQEAYABgAAD/2wBDAAMCAgMCAgMDAwMEAwMEBQgFBQQEBQoHBwYIDAoMDAsKCwsNDhIQDQ4RDgsLEBYQERMUFRUVDA8XGBYUGBIUFRT/2wBDAQMEBAUEBQkFBQkUDQsNFBQUFBQUFBQUFBQUFBQUFBQUFBQUFBQUFBQUFBQUFBQUFBQUFBQUFBQUFBQUFBQUFBT/wAARCABAASwDASIAAhEBAxEB/8QAHwAAAQUBAQEBAQEAAAAAAAAAAAECAwQFBgcICQoL/8QAtRAAAgEDAwIEAwUFBAQAAAF9AQIDAAQRBRIhMUEGE1FhByJxFDKBkaEII0KxwRVS0fAkM2JyggkKFhcYGRolJicoKSo0NTY3ODk6Q0RFRkdISUpTVFVWV1hZWmNkZWZnaGlqc3R1dnd4eXqDhIWGh4iJipKTlJWWl5iZmqKjpKWmp6ipqrKztLW2t7i5usLDxMXGx8jJytLT1NXW19jZ2uHi4+Tl5ufo6erx8vP09fb3+Pn6/8QAHwEAAwEBAQEBAQEBAQAAAAAAAAECAwQFBgcICQoL/8QAtREAAgECBAQDBAcFBAQAAQJ3AAECAxEEBSExBhJBUQdhcRMiMoEIFEKRobHBCSMzUvAVYnLRChYkNOEl8RcYGRomJygpKjU2Nzg5OkNERUZHSElKU1RVVldYWVpjZGVmZ2hpanN0dXZ3eHl6goOEhYaHiImKkpOUlZaXmJmaoqOkpaanqKmqsrO0tba3uLm6wsPExcbHyMnK0tPU1dbX2Nna4uPk5ebn6Onq8vP09fb3+Pn6/9oADAMBAAIRAxEAPwD9U6KKKACimhgaXPtigBaKbu9qWgBaKbuFAkDZ9utADqKbuoLYz7UAOopu4UbqAHUUmaTdzigB1FJuHrSbvbvQA6ik3D1pN1ADqKKbu9qAHUU0t+NLQAtFN3daC+Pp9aAHUU3d7UbqAHUU3dRv/LvQA6imeZ3PSk830GaAJKKbu44GaTzPagB9FM8wc+3XmjzOM9KAH0VGZMdqkoAKKKKACiiigD4x/aC+PXjzwT8Xdf0XRdfaz022+z+VD9mhfbut43blkJ5Zj+dcBa/tVfE23uBI3iMT4H+rlsoNv5LGPb8/Xij9qz/kvnij/t1/9JIq6L4Y+A/DXiL9mvxtqurQW8WpadczzWl82FlSRYImRAe4ZgRt6nPTNAHsHwB/ak/4WJq0XhzxFbQ2WtzKTa3VvxDcEDJQgk7ZMZI5IOD+Pqvxa+KGn/Cbwfc63ep582RFa2iuFa4mPRAT0GASTg4AJwelfm1pGqXWhatY6nZv5d5ZXCXMMmN22RG3Kcd8HHHsK96/bY8TSal8SLDRg+620qzV/L6gSyksxI9dqx/56gHHeKv2mviH4o1CS4TX5tIhJylppv7pIxxxnlj9Sa7v4Nftca9pWtW2m+Mrn+1NGnZUN9IirNa56MSuNyjvkZA5z2pf2TfgpoXxEstc1rxJY/2jZW8q2dtC0jIu/bukYhSDkBkx9a8Q+IXhlfBvjjXtFDM0NjeSwxmTkmMP8hPHJI5PvQB9j/tWeOfFngHQdA1rwvrP9nW0lw9tdBYYpfNLqGibLq2APLfp13VyP7K/xw8XfEDx/f6R4k1f+0bf+znuIA0EUeyRZIxgbFGcq5/75pswuPiV+xXvl/f6hosYYOx5VbaXBP1EGRmvI/2VdS/s344+HuWCXAngbHQ7oXwD+IWgDvf2gP2hPG3hX4ta1o3h/XTYabY+TGsS28MmWMSuxy6E9WI/CvafhH8TNR8Rfs/3HirUro3uq2dtevPIFRSWi3svyqoUfKF7d6+JfihqQ1n4leKL1X8xZtTuWVs5ynmHGD6Yx+Ve1/AfxMtr+zj8U9Pd2Q2qSTK+7vPD5YX2y0Z/769qAOK0v9pL4ratqdnYweKJGnupkhRRZW5O5mAA/wBX6kV6t+1D8Z/Gvw6+Ilrpega41hZNpsU7R/ZoZMyF5ATl0J/hH5V4r+zj4bHib40eF4HVjFb3P21yO3kgyKfpvVR+Ndr+2x/yVyz/AOwRCP8AyLLQByo/ak+KB/5mmT/wCt//AI3X0T8H/id4l8T/ALP/AIu8R6nqjXesaet59mufJjQp5durL8qqAcMe47V45+zdo/ww1LR9abx7LpaXK3CfZhf3hhOwpzjDjNfSd7o/hPR/gP4t/wCEKW2/sOfS76RHspjLG7+UysQxY91x17UAfI3/AA1J8UMZ/wCErYj1+x2+On/XOtfw/wDtffETR7pWvb201uAtlobu2RCw9A0e3+Rryjwrbx3nirRYJ4/NhlvreN43H31Mqgj8q9h/a28A+HvAnjTSl0Cyi0xL60aWe2t/lQMHwGC5wuRnoO1AH2B8L/iZpnxU8I22u6aGiDHyrm2kOWt5gAWjY98BgQe4IPtXx78Qv2jviNoXj/xRptj4kaGys9Vu7eCL7JA2yNJmVRkoTwK7X9hW+nW/8XWQRmtDHbzFuyvlwAB7g/8Ajg9K8B+LH/JVPGn/AGG77/0e9AHoPh/9rz4i6RdK95f2utQbtzw3VqiZHoGjVcfXmvrn4PfGXSfjFoEt9YRPZ3tswS7sJmDPCxGQcj7ynBw2BnB6V8q/ED4D6VpfwB8NePNJ86G+Nnay6jG0heOTzQo8xQfukO6dOMHpxXO/sveMJfCfxi0aMTMlpqjHTrhMcNvH7sfUSBee2SO9AHsH7U3xm8ZfDv4gWWm+HtabTrKTT452jFvFJly8gJy6k9FH5Vtfsm/GjXviLf6/pnibVRqN7DHHcWm6KONvLyVk+4ozgmP868w/bb/5Kpp//YJj/wDRsteY/Bfxsnw9+J2g61NKYbSO48m5bJA8mQFHJ9gDu+qLQB6l8Zv2gviD4V+KPiPSNL8RNa6faXWyGH7JA+wBQcZaMnvX0d8KfiFLP8DdO8X+KL/zZEtZri7uiipkJI44AAGcLgD1r4t/aEbd8avFx/6ffzyq8/rXsviSS6X9h3Rhb7vIaSMXRXtGLt8f+RPLB/GgDzrx/wDtTeNvF2tTzaXqk/h3S1ciCzsyquF7F3xlmxjuAM9K9I/ZV+M3jDxb48Oga5q8mq6e1lJMpuEBkVkKgYcAEjnnrXzn4Al0C38aaNJ4niabQFuEF3GhP3CcZOOSoOM49K+7/Bfwb8HaL4usvG3g/wAu2guLWSJ47KXzLaZHwRInJw3A4HHPTigDL+P3xnuvh8tto+kbE1i6i84zuu4QxZKhgOhJIbr6V4Bpvxy8caZfpdDxBc3RU5MN0fMjb2K/4Yr0b9q7wlqL67p/iRITJpxtVs5WQZMUiu5Ut6A7+PpXz8Ocd8noOv5V/N/FmaZpSzepBVJQjG3Kk2la2/nc/fuGcsy6plUJ+zjNyT5m0m731Xlb/g9T7i8F/Fiz8Q/DSXxXdL5K2cUhvYY+SkiDLAD3BBH1FfL/AIm+P3jPxFqT3EerTaXBk+Xa2R2Ko9CerfjXtHw3+FmqR/AXWdGuVNvqOteZdRwyfKYyURY1b0z5YPtu9q+V7i1ls7qW3uY2t5422PHIpVlbPQg9DXpcUZpm0cJglUk4c0LytpeXn8rO3mefw3luVyxWM9mlPllZX1tHyv53V/I+lP2f/jnqniLXYvDniK5F5PcKxs7xlAbcq7mRsDByATnjpin/AB9+O+p+G9ak8OeHZRa3ECq13e4DMrMM7FBGM4wc+/SvOv2b/CN9r3xEs9TjiZdP0pmlnlPCl9hCoPU5IJ9h70v7SHg+/wBD+IF5qssLnTtUKyw3H8IfaoZD6Ebc1p/a2cf6s+25n8dubryW7+ulyP7Lyr/WP2PKvgvy9Oe/bvbWxl+Gfj54z8O6ol1Jq82qQ8CS1vW3owHoeqn3FfZfhXxNB4t8O6fq9qhWC8hWUKxyUyOVPuDx+FfnpBbS3VxHBbxtPPI2xIo1LOzegUck195/Crw9c+FPh7oel3g2XcMA82Pj5XYlivHXBOM98V6PAOPx+Iq1qVeblTSvrrZ36PzV/uODjfA4LD0qVWjFRqN2stLq3bydtTsaKKK/aT8jCiiigD88v2rP+S+eKP8At1/9JIq8vXVLxNNawW9nXT2lEzWomYQmQAYcpnG4DFen/tWN/wAX88T9AP8ARep/6dIq95/Yl062uvhzrEk9rFK41Z1WSSMMQvkxcZP1oA8d/Zv+Ber+NvF2na5qNhNa+HdPnW5aadSn2l0bKxqp5IJ6nGKpftaWMtt8dNbkf7tzFbSx/wC6IVT+aN+VfoEE7dq+Tv23Ph7PN/ZXjO1h8yCKP7DfFesYyWic/wCzlmUnsWX14AOo/YfmVvhbrEfR11qUsCMcGCDB/Ifoa+Yvj1Osvxj8YPGQUF/IMgk8jg9fp096s/Bv446x8GZtU/s6ztr+3v4182G5LBVdAQjgg/7RyO/HIriZptS8XeIJJiJL/VtSui2EGXmnkfPygerHp/iBQB9n/sl6GNV+A1/Y3i5tNSurqLA6GNkWNv13V8j+C9Yk+HfxG0u/v4Win0i/H2iHHzKUba4I9sGv0M+Evgo/Dz4d6HoEjCSe1g/0h1bKmZiXkIPpvJxXwf8AtB6ONC+NHi23AYCW9a6Az/z1Ak/mxoAsfAjwe/jfVvE9sy+fJH4evpEZ+cSldqN7/Mwrn/C/jP8AsPwX4x0Muy/21DaqnHBaK4V8H0+QvXuf7DOjx3mu+ML51yYbS3tgOcbZWkYj/wAhCvnHxJpT+H/EmraXKQZrG7mtH29N0blD+oNAHv37DuivefEDXNUIBisdOEPTo8si7f0ik/Os/wDbX/5K5Z/9gmH/ANGy16h+w3oKWvgnxBrG395eX62+f9mKMEfrK3615h+2v/yVyy99Jh7/APTSWgDyrwb8LfFXxCtri48P6PLqkVu2yWSJ4xsYjIHzMO1fYXgzwxqng/8AZQ1bSNas2sNRt9K1PzIHYMVDGZhypPYivmL4Q/H7Wvg7p9/aaZp1jex3kqyyG7D5BC7eNrCvpvwt8VL/AOLn7PPjjWdRtLeznjtL62EdqG2bRbbgfmJ/vUAfD+lR3UupWcen7vt7TotvsOD5hbC4J6c1c8Qa5q/ijXHudf1C4utQY+VJPfM26MBvun+7j5uMUvg0/wDFYaCSFI/tC2PXIH71fevQf2oPBh8GfGDWNiqtpqmNSh2k9JCd4b/tor4A9R68AH1/8B/g/Z/CDwi1olwt/qd8yzX14mQjsB8qpn+BcnHrknvivhL4sf8AJVPGn/Ybvv8A0e9fZ/7KfxKXx18M7fTriQtqmhBbKZWPzNFj9zJ9CoK57mMmvi/4sN/xdTxpwf8AkN33Hf8A4+H5oA+svFVzDa/sU2jS4ZW0GxjVcZyS0QXA+pH5Z7V8ofCG3e5+K3g5Y95f+2rRvlHQCdGJ/DFX/Fnxl8QeLPAuh+EZ/IttE0qGOJIrdGDXBjXarSMx54zwOM49K9F/Y5+HNz4k8ff8JPMm3StFBCSEcSXDqVVR2O1csT1HycfNkAD/ANtv/kqmn/8AYJj/APRsteQ/8Il5nwxXxOhbcusPpk2DxhrdJI/pyHH1YV69+23/AMlU0730mP8A9Gy/41ufs9+CV+In7OfjzQxH5lxPqDPbBiMidIYnjOf94AZ9M0AfNutazd+INSkv76TzrqQIHk/vbUCA/kK+8vgX4fsfFf7N2h6PqcSz2N9aTwzJ6q00nQ+o657EZr8/xz/X26/4V9X33iXU/B/7IvgjV9Hu5LLULa+DRyx4PHmTgg54IPcUAeM/Gr4I6v8ABzWtk4kvNEuZCLPUgPlfP/LN/wC7JgHjoe3fHdfsdfEe+0Xx9F4TluJJNJ1ZZPJt2JKwzqhk3KP4QVDA4xnI9KxviZ+1HrPxO8Dnw7eaNY2QmdDc3MTMxcqwYbFP3Og5y3GRxmm/sj+G7nXPjPp17GdsGjxTXU7ezRtEFz7mQH/gLelAH2P8TPiFofw/0PztbBuRcExxWKoHe4OOQAeMDjk+o9RXz/4b+OHgzTdeW6f4dWdhGW/4+rcrJLF7hSgH5YqL9rRbg/EDTvNWQ2x05PJ3fc3ea+/HbP3c/wDAfavFMbfQc8Y54r8A4m4lxlHNZUqKilSdleMZN7a3abXysft/DnDuDq5ZGrVcm6qu7SaS1fRaO3nc/Q7R9este0m21axnjm0+5j8yOdTwV55OemMH6V85/EP46eCdW1hvK8FWviLYdh1C6KxeaB/dwpLL/vY+lWvhiNX/AOGafFnlrMNz3Btsnkw+Wm/b+Pm9O9fOXUkck9+mfqa7+JOJsX9TwqpQUfaxU3dJ/Jc1157X1Rw8P8OYX63iXUm5ezlyqza87vls+y3toz7U+C/xO8OeNdMm07R9Pj0O4s1DvpyhQu0/xoQBuGe+M8j1FSfGL4oeHPBOmCw1eyXWru6QtHpmFO5ezOT90Z4z9fQ4+avgCt1/wtzQPsfmEiSXzCo48ry23Zx2xjHuB6CpP2gVuf8Aha2u/aQ+C0fl+Z/zz8tcY9v/AK1af614v/V72/Iufm9ney5bWvfl2v0tt+RH+rGE/t72HO+Tl57X97e1r77633t953fw9+OXgrR9aUyeCrbw+XOwX9qVlMQP97Kghf8Ad/Kvpu1uI7y1ingkWWGRQ8ciEEMpGQQe+RX5yjtjIPb/ABFfc/wPW4X4U+Ghc5D/AGUbM/8APPJ2fht212cC55icdOpg6yVormTUVHrazUUl+Hc4+Msmw+ChTxdFu7fK02303Td366nfUUUV+wH5aFFFFAHh3xG/ZR0P4keM9R8R3mtaha3N75e6GBU2LsjSMYyM9E/Wu1+EPwjsPg9oN5pWn31xfxXN0bppLlVDBiiLj5QP7n613lFABVPUtKtdZsLmxvoIruzuEMc0EybkdT1BBq5RQB81+J/2H/Dmp6kbjRdbvNEt25+yvELlUP8AssWDD8Sa7b4T/sy+F/hTqC6rDJcavrSKVjvbzGIQRg+Wg4Ukdzk9eeTXr1FADdvfNeN/FT9mHQ/ip4rfXrvVL3T7h7dIHjtVQh9ucMdwPOCB/wABr2aigDzn4O/BHS/gza6pDpt7c3zag8byyXIUEBAQoG0D+8351wviz9jnw54s8UaprUutajayahcyXTwwrHtV3bc2MjPUn86+gKKAOT+GPw7s/hf4Ns/DtjcS3UFs8rieYASOXkZ8nHpux+Ariviz+zVo/wAXPE8Wtahq19ZTR2y2wjt1QrtDOc/MD/f/AEr2GigD5p/4YX8M/wDQxat/3xF/8TXpngv4G6b4J+HOteELbUbq5tNUE4kuJgvmJ5sYjbGBjoK9KooA+c9K/Yo8OaTqtlfJ4h1WSS1njnRXWPBZWDc/L7V3Xxi/Z/0b4y3Ol3F/fXWnXFikiCS0CEyKxBAbcD0IOMf3jXqVFAHj/wAJv2b9N+EPiKXVdN13ULvzrdraW3uAmxwWDBjgD5gV4PoT61zXiT9jPw94m8RatrE+vanFPqN3NeSJGI9qtI5YgZHTmvoWigD540f9iTwXY3azXuo6tqSDrC0qRo31KqG/IivdNC8N6b4Z0uDTdJs4dPsIBiO3t12quTkn6k9T15rTooA8g+Lf7Nuj/F7xHBrGoatfWM0VstsI7cIVKhmbPzA/3v0rofg/8ILD4O6HfaZp99c30d1dG6aS52hg2xVxwOny/rXfUUAfPfiT9jHwz4i8Qalqv9s6lZG+uZLloIVj2IzsWIGV6ZPSu1u/gDoepfCmx8B3l5ey6dZv5kV0hVJt252BPykfxnt2r0+igD5aH7COm/atx8X3htyfmj+xpvIznG7djpx0r3X4cfCvw/8ACvR20/QbZohId09zK26aducM7Y56n25PFdhRQByXxC+GWjfEjSVstUjYNExeC4jOJIWPcH0Pcd8D0FeTab+x7psGoLJfeI7i7swcmCK2ETsPQvvP6AV9DUV4GNyHLMxrLEYqipTXXVffZq/zue3g87zHAUnQw1Zxi+mn4X2+VjN0nQLPQ9Jt9MsoEt7G3Ty44UX5Qvp/OvFfE37I+j6rqUlzpOszaPBI242rQCZFz1C/MpA/OvfKK3x2T4DMqcaWKpKUY7bq3o1Zr0McHmuNy+pKrhqri5b9b+qd0zz74X/BjR/hfDcSWksl9qNwAJr24ADED+FQPur3x/8AWp3xM+DOjfEyGNrt5LPUYRtivoQN4XOdpH8S+3+Jz39FV/ZOB+qfUfZL2X8v9a389yf7Txn1r677V+179f8AhvLY8E8N/sk6RpupR3GrazNq9vG24WqweQj+znexI9hivdLe0S1hjhiVY4o1CIijAVRwAAPap6KWX5Rgcqi4YKkoX33bfzbb/EeOzTGZlJTxdRya26JfJWQUUUV655Z//9k=;" vertex="1" parent="1">
          <mxGeometry x="1062.5" y="589" width="206.25" height="44" as="geometry" />
        </mxCell>
        <mxCell id="4Yu0JL-Y8x3OvqKyGdus-31" value="" style="outlineConnect=0;dashed=0;verticalLabelPosition=bottom;verticalAlign=top;align=center;html=1;shape=mxgraph.aws3.traditional_server;fillColor=#7D7C7C;gradientColor=none;" vertex="1" parent="1">
          <mxGeometry x="623.12" y="270" width="80" height="133" as="geometry" />
        </mxCell>
        <mxCell id="4Yu0JL-Y8x3OvqKyGdus-32" value="" style="outlineConnect=0;dashed=0;verticalLabelPosition=bottom;verticalAlign=top;align=center;html=1;shape=mxgraph.aws3.traditional_server;fillColor=#7D7C7C;gradientColor=none;" vertex="1" parent="1">
          <mxGeometry x="623.12" y="500" width="80" height="133" as="geometry" />
        </mxCell>
        <mxCell id="4Yu0JL-Y8x3OvqKyGdus-33" value="" style="outlineConnect=0;dashed=0;verticalLabelPosition=bottom;verticalAlign=top;align=center;html=1;shape=mxgraph.aws3.traditional_server;fillColor=#7D7C7C;gradientColor=none;" vertex="1" parent="1">
          <mxGeometry x="623.1300000000001" y="10" width="80" height="133" as="geometry" />
        </mxCell>
        <mxCell id="4Yu0JL-Y8x3OvqKyGdus-34" value="" style="outlineConnect=0;dashed=0;verticalLabelPosition=bottom;verticalAlign=top;align=center;html=1;shape=mxgraph.aws3.traditional_server;fillColor=#7D7C7C;gradientColor=none;" vertex="1" parent="1">
          <mxGeometry x="1120" y="77" width="80" height="133" as="geometry" />
        </mxCell>
        <mxCell id="4Yu0JL-Y8x3OvqKyGdus-35" value="" style="outlineConnect=0;dashed=0;verticalLabelPosition=bottom;verticalAlign=top;align=center;html=1;shape=mxgraph.aws3.traditional_server;fillColor=#7D7C7C;gradientColor=none;" vertex="1" parent="1">
          <mxGeometry x="1317.49" y="77" width="80" height="133" as="geometry" />
        </mxCell>
        <mxCell id="4Yu0JL-Y8x3OvqKyGdus-36" value="" style="outlineConnect=0;dashed=0;verticalLabelPosition=bottom;verticalAlign=top;align=center;html=1;shape=mxgraph.aws3.traditional_server;fillColor=#7D7C7C;gradientColor=none;" vertex="1" parent="1">
          <mxGeometry x="1125.62" y="427" width="80" height="133" as="geometry" />
        </mxCell>
        <mxCell id="4Yu0JL-Y8x3OvqKyGdus-37" value="" style="outlineConnect=0;dashed=0;verticalLabelPosition=bottom;verticalAlign=top;align=center;html=1;shape=mxgraph.aws3.traditional_server;fillColor=#7D7C7C;gradientColor=none;" vertex="1" parent="1">
          <mxGeometry x="1459.9999999999998" y="427" width="80" height="133" as="geometry" />
        </mxCell>
        <mxCell id="4Yu0JL-Y8x3OvqKyGdus-41" value="" style="group" vertex="1" connectable="0" parent="1">
          <mxGeometry x="300.00000000000006" y="270" width="79.99999999999994" height="133" as="geometry" />
        </mxCell>
        <mxCell id="4Yu0JL-Y8x3OvqKyGdus-40" value="" style="outlineConnect=0;dashed=0;verticalLabelPosition=bottom;verticalAlign=top;align=center;html=1;shape=mxgraph.aws3.traditional_server;fillColor=#7D7C7C;gradientColor=none;" vertex="1" parent="4Yu0JL-Y8x3OvqKyGdus-41">
          <mxGeometry width="80" height="133" as="geometry" />
        </mxCell>
        <mxCell id="4Yu0JL-Y8x3OvqKyGdus-39" value="" style="sketch=0;aspect=fixed;pointerEvents=1;shadow=0;dashed=0;html=1;strokeColor=none;labelPosition=center;verticalLabelPosition=bottom;verticalAlign=top;align=center;fillColor=#FFFFFF;shape=mxgraph.azure.load_balancer_generic" vertex="1" parent="4Yu0JL-Y8x3OvqKyGdus-41">
          <mxGeometry x="21.499999999999943" y="66" width="37" height="50" as="geometry" />
        </mxCell>
        <mxCell id="4Yu0JL-Y8x3OvqKyGdus-42" value="&lt;font style=&quot;font-size: 20px;&quot;&gt;&lt;b&gt;Load Balancer&lt;/b&gt;&lt;/font&gt;" style="text;html=1;align=center;verticalAlign=middle;resizable=0;points=[];autosize=1;strokeColor=none;fillColor=none;" vertex="1" parent="1">
          <mxGeometry x="260" y="410" width="160" height="40" as="geometry" />
        </mxCell>
        <mxCell id="4Yu0JL-Y8x3OvqKyGdus-43" value="&lt;font style=&quot;font-size: 20px;&quot;&gt;&lt;b&gt;client&lt;/b&gt;&lt;/font&gt;&lt;span style=&quot;color: rgba(0, 0, 0, 0); font-family: monospace; font-size: 0px; text-align: start;&quot;&gt;%3CmxGraphModel%3E%3Croot%3E%3CmxCell%20id%3D%220%22%2F%3E%3CmxCell%20id%3D%221%22%20parent%3D%220%22%2F%3E%3CmxCell%20id%3D%222%22%20value%3D%22%26lt%3Bfont%20style%3D%26quot%3Bfont-size%3A%2020px%3B%26quot%3B%26gt%3B%26lt%3Bb%26gt%3BLoad%20Balancer%26lt%3B%2Fb%26gt%3B%26lt%3B%2Ffont%26gt%3B%22%20style%3D%22text%3Bhtml%3D1%3Balign%3Dcenter%3BverticalAlign%3Dmiddle%3Bresizable%3D0%3Bpoints%3D%5B%5D%3Bautosize%3D1%3BstrokeColor%3Dnone%3BfillColor%3Dnone%3B%22%20vertex%3D%221%22%20parent%3D%221%22%3E%3CmxGeometry%20x%3D%22450%22%20y%3D%22430%22%20width%3D%22160%22%20height%3D%2240%22%20as%3D%22geometry%22%2F%3E%3C%2FmxCell%3E%3C%2Froot%3E%3C%2FmxGraphModel%3E&lt;/span&gt;" style="text;html=1;align=center;verticalAlign=middle;resizable=0;points=[];autosize=1;strokeColor=none;fillColor=none;" vertex="1" parent="1">
          <mxGeometry x="65" y="230" width="80" height="40" as="geometry" />
        </mxCell>
        <mxCell id="4Yu0JL-Y8x3OvqKyGdus-44" value="&lt;font style=&quot;font-size: 20px;&quot;&gt;&lt;b&gt;client&lt;/b&gt;&lt;/font&gt;&lt;span style=&quot;color: rgba(0, 0, 0, 0); font-family: monospace; font-size: 0px; text-align: start;&quot;&gt;%3CmxGraphModel%3E%3Croot%3E%3CmxCell%20id%3D%220%22%2F%3E%3CmxCell%20id%3D%221%22%20parent%3D%220%22%2F%3E%3CmxCell%20id%3D%222%22%20value%3D%22%26lt%3Bfont%20style%3D%26quot%3Bfont-size%3A%2020px%3B%26quot%3B%26gt%3B%26lt%3Bb%26gt%3BLoad%20Balancer%26lt%3B%2Fb%26gt%3B%26lt%3B%2Ffont%26gt%3B%22%20style%3D%22text%3Bhtml%3D1%3Balign%3Dcenter%3BverticalAlign%3Dmiddle%3Bresizable%3D0%3Bpoints%3D%5B%5D%3Bautosize%3D1%3BstrokeColor%3Dnone%3BfillColor%3Dnone%3B%22%20vertex%3D%221%22%20parent%3D%221%22%3E%3CmxGeometry%20x%3D%22450%22%20y%3D%22430%22%20width%3D%22160%22%20height%3D%2240%22%20as%3D%22geometry%22%2F%3E%3C%2FmxCell%3E%3C%2Froot%3E%3C%2FmxGraphModel%3E&lt;/span&gt;" style="text;html=1;align=center;verticalAlign=middle;resizable=0;points=[];autosize=1;strokeColor=none;fillColor=none;" vertex="1" parent="1">
          <mxGeometry x="60" y="384" width="80" height="40" as="geometry" />
        </mxCell>
        <mxCell id="4Yu0JL-Y8x3OvqKyGdus-45" value="&lt;font style=&quot;font-size: 20px;&quot;&gt;&lt;b&gt;client&lt;/b&gt;&lt;/font&gt;&lt;span style=&quot;color: rgba(0, 0, 0, 0); font-family: monospace; font-size: 0px; text-align: start;&quot;&gt;%3CmxGraphModel%3E%3Croot%3E%3CmxCell%20id%3D%220%22%2F%3E%3CmxCell%20id%3D%221%22%20parent%3D%220%22%2F%3E%3CmxCell%20id%3D%222%22%20value%3D%22%26lt%3Bfont%20style%3D%26quot%3Bfont-size%3A%2020px%3B%26quot%3B%26gt%3B%26lt%3Bb%26gt%3BLoad%20Balancer%26lt%3B%2Fb%26gt%3B%26lt%3B%2Ffont%26gt%3B%22%20style%3D%22text%3Bhtml%3D1%3Balign%3Dcenter%3BverticalAlign%3Dmiddle%3Bresizable%3D0%3Bpoints%3D%5B%5D%3Bautosize%3D1%3BstrokeColor%3Dnone%3BfillColor%3Dnone%3B%22%20vertex%3D%221%22%20parent%3D%221%22%3E%3CmxGeometry%20x%3D%22450%22%20y%3D%22430%22%20width%3D%22160%22%20height%3D%2240%22%20as%3D%22geometry%22%2F%3E%3C%2FmxCell%3E%3C%2Froot%3E%3C%2FmxGraphModel%3E&lt;/span&gt;" style="text;html=1;align=center;verticalAlign=middle;resizable=0;points=[];autosize=1;strokeColor=none;fillColor=none;" vertex="1" parent="1">
          <mxGeometry x="55" y="551" width="80" height="40" as="geometry" />
        </mxCell>
        <mxCell id="4Yu0JL-Y8x3OvqKyGdus-46" value="" style="endArrow=classic;html=1;rounded=0;entryX=0;entryY=0.5;entryDx=0;entryDy=0;entryPerimeter=0;exitX=1;exitY=0.5;exitDx=0;exitDy=0;exitPerimeter=0;strokeWidth=3;" edge="1" parent="1" source="4Yu0JL-Y8x3OvqKyGdus-40" target="4Yu0JL-Y8x3OvqKyGdus-33">
          <mxGeometry width="50" height="50" relative="1" as="geometry">
            <mxPoint x="390" y="320" as="sourcePoint" />
            <mxPoint x="480" y="230" as="targetPoint" />
            <Array as="points">
              <mxPoint x="410" y="300" />
            </Array>
          </mxGeometry>
        </mxCell>
        <mxCell id="4Yu0JL-Y8x3OvqKyGdus-48" value="" style="endArrow=classic;html=1;rounded=0;entryX=0;entryY=0.5;entryDx=0;entryDy=0;entryPerimeter=0;exitX=1;exitY=0.5;exitDx=0;exitDy=0;exitPerimeter=0;strokeWidth=3;" edge="1" parent="1" source="4Yu0JL-Y8x3OvqKyGdus-40" target="4Yu0JL-Y8x3OvqKyGdus-31">
          <mxGeometry width="50" height="50" relative="1" as="geometry">
            <mxPoint x="380" y="410" as="sourcePoint" />
            <mxPoint x="623" y="150" as="targetPoint" />
            <Array as="points" />
          </mxGeometry>
        </mxCell>
        <mxCell id="4Yu0JL-Y8x3OvqKyGdus-49" value="" style="endArrow=classic;html=1;rounded=0;entryX=0;entryY=0.5;entryDx=0;entryDy=0;entryPerimeter=0;strokeWidth=3;" edge="1" parent="1" target="4Yu0JL-Y8x3OvqKyGdus-32">
          <mxGeometry width="50" height="50" relative="1" as="geometry">
            <mxPoint x="380" y="340" as="sourcePoint" />
            <mxPoint x="623.12" y="360" as="targetPoint" />
            <Array as="points" />
          </mxGeometry>
        </mxCell>
        <mxCell id="4Yu0JL-Y8x3OvqKyGdus-50" value="" style="endArrow=classic;html=1;rounded=0;entryX=0;entryY=0.5;entryDx=0;entryDy=0;entryPerimeter=0;exitX=1;exitY=0.71;exitDx=0;exitDy=0;exitPerimeter=0;strokeWidth=3;" edge="1" parent="1" source="4Yu0JL-Y8x3OvqKyGdus-16" target="4Yu0JL-Y8x3OvqKyGdus-40">
          <mxGeometry width="50" height="50" relative="1" as="geometry">
            <mxPoint x="218.5" y="230" as="sourcePoint" />
            <mxPoint x="461.5" y="-30" as="targetPoint" />
            <Array as="points" />
          </mxGeometry>
        </mxCell>
        <mxCell id="4Yu0JL-Y8x3OvqKyGdus-51" value="" style="endArrow=classic;html=1;rounded=0;entryX=0;entryY=0.5;entryDx=0;entryDy=0;entryPerimeter=0;exitX=1;exitY=0.71;exitDx=0;exitDy=0;exitPerimeter=0;strokeWidth=3;" edge="1" parent="1" target="4Yu0JL-Y8x3OvqKyGdus-40">
          <mxGeometry width="50" height="50" relative="1" as="geometry">
            <mxPoint x="140" y="363.5" as="sourcePoint" />
            <mxPoint x="280" y="496.5" as="targetPoint" />
            <Array as="points" />
          </mxGeometry>
        </mxCell>
        <mxCell id="4Yu0JL-Y8x3OvqKyGdus-52" value="" style="endArrow=classic;html=1;rounded=0;entryX=0;entryY=0.5;entryDx=0;entryDy=0;entryPerimeter=0;strokeWidth=3;" edge="1" parent="1" target="4Yu0JL-Y8x3OvqKyGdus-40">
          <mxGeometry width="50" height="50" relative="1" as="geometry">
            <mxPoint x="110" y="490" as="sourcePoint" />
            <mxPoint x="260" y="473.5" as="targetPoint" />
            <Array as="points" />
          </mxGeometry>
        </mxCell>
        <mxCell id="4Yu0JL-Y8x3OvqKyGdus-53" value="" style="sketch=0;outlineConnect=0;fillColor=#666666;strokeColor=#b85450;dashed=0;verticalLabelPosition=bottom;verticalAlign=top;align=center;html=1;fontSize=12;fontStyle=0;aspect=fixed;pointerEvents=1;shape=mxgraph.aws4.rds_mariadb_instance;" vertex="1" parent="1">
          <mxGeometry x="1108.75" y="760" width="140" height="140" as="geometry" />
        </mxCell>
        <mxCell id="4Yu0JL-Y8x3OvqKyGdus-56" value="" style="shape=image;verticalLabelPosition=bottom;labelBackgroundColor=default;verticalAlign=top;aspect=fixed;imageAspect=0;image=data:image/jpeg,/9j/4AAQSkZJRgABAQEAYABgAAD/2wBDAAMCAgMCAgMDAwMEAwMEBQgFBQQEBQoHBwYIDAoMDAsKCwsNDhIQDQ4RDgsLEBYQERMUFRUVDA8XGBYUGBIUFRT/2wBDAQMEBAUEBQkFBQkUDQsNFBQUFBQUFBQUFBQUFBQUFBQUFBQUFBQUFBQUFBQUFBQUFBQUFBQUFBQUFBQUFBQUFBT/wAARCABAASwDASIAAhEBAxEB/8QAHwAAAQUBAQEBAQEAAAAAAAAAAAECAwQFBgcICQoL/8QAtRAAAgEDAwIEAwUFBAQAAAF9AQIDAAQRBRIhMUEGE1FhByJxFDKBkaEII0KxwRVS0fAkM2JyggkKFhcYGRolJicoKSo0NTY3ODk6Q0RFRkdISUpTVFVWV1hZWmNkZWZnaGlqc3R1dnd4eXqDhIWGh4iJipKTlJWWl5iZmqKjpKWmp6ipqrKztLW2t7i5usLDxMXGx8jJytLT1NXW19jZ2uHi4+Tl5ufo6erx8vP09fb3+Pn6/8QAHwEAAwEBAQEBAQEBAQAAAAAAAAECAwQFBgcICQoL/8QAtREAAgECBAQDBAcFBAQAAQJ3AAECAxEEBSExBhJBUQdhcRMiMoEIFEKRobHBCSMzUvAVYnLRChYkNOEl8RcYGRomJygpKjU2Nzg5OkNERUZHSElKU1RVVldYWVpjZGVmZ2hpanN0dXZ3eHl6goOEhYaHiImKkpOUlZaXmJmaoqOkpaanqKmqsrO0tba3uLm6wsPExcbHyMnK0tPU1dbX2Nna4uPk5ebn6Onq8vP09fb3+Pn6/9oADAMBAAIRAxEAPwD9U6KKKACimhgaXPtigBaKbu9qWgBaKbuFAkDZ9utADqKbuoLYz7UAOopu4UbqAHUUmaTdzigB1FJuHrSbvbvQA6ik3D1pN1ADqKKbu9qAHUU0t+NLQAtFN3daC+Pp9aAHUU3d7UbqAHUU3dRv/LvQA6imeZ3PSk830GaAJKKbu44GaTzPagB9FM8wc+3XmjzOM9KAH0VGZMdqkoAKKKKACiiigD4x/aC+PXjzwT8Xdf0XRdfaz022+z+VD9mhfbut43blkJ5Zj+dcBa/tVfE23uBI3iMT4H+rlsoNv5LGPb8/Xij9qz/kvnij/t1/9JIq6L4Y+A/DXiL9mvxtqurQW8WpadczzWl82FlSRYImRAe4ZgRt6nPTNAHsHwB/ak/4WJq0XhzxFbQ2WtzKTa3VvxDcEDJQgk7ZMZI5IOD+Pqvxa+KGn/Cbwfc63ep582RFa2iuFa4mPRAT0GASTg4AJwelfm1pGqXWhatY6nZv5d5ZXCXMMmN22RG3Kcd8HHHsK96/bY8TSal8SLDRg+620qzV/L6gSyksxI9dqx/56gHHeKv2mviH4o1CS4TX5tIhJylppv7pIxxxnlj9Sa7v4Nftca9pWtW2m+Mrn+1NGnZUN9IirNa56MSuNyjvkZA5z2pf2TfgpoXxEstc1rxJY/2jZW8q2dtC0jIu/bukYhSDkBkx9a8Q+IXhlfBvjjXtFDM0NjeSwxmTkmMP8hPHJI5PvQB9j/tWeOfFngHQdA1rwvrP9nW0lw9tdBYYpfNLqGibLq2APLfp13VyP7K/xw8XfEDx/f6R4k1f+0bf+znuIA0EUeyRZIxgbFGcq5/75pswuPiV+xXvl/f6hosYYOx5VbaXBP1EGRmvI/2VdS/s344+HuWCXAngbHQ7oXwD+IWgDvf2gP2hPG3hX4ta1o3h/XTYabY+TGsS28MmWMSuxy6E9WI/CvafhH8TNR8Rfs/3HirUro3uq2dtevPIFRSWi3svyqoUfKF7d6+JfihqQ1n4leKL1X8xZtTuWVs5ynmHGD6Yx+Ve1/AfxMtr+zj8U9Pd2Q2qSTK+7vPD5YX2y0Z/769qAOK0v9pL4ratqdnYweKJGnupkhRRZW5O5mAA/wBX6kV6t+1D8Z/Gvw6+Ilrpega41hZNpsU7R/ZoZMyF5ATl0J/hH5V4r+zj4bHib40eF4HVjFb3P21yO3kgyKfpvVR+Ndr+2x/yVyz/AOwRCP8AyLLQByo/ak+KB/5mmT/wCt//AI3X0T8H/id4l8T/ALP/AIu8R6nqjXesaet59mufJjQp5durL8qqAcMe47V45+zdo/ww1LR9abx7LpaXK3CfZhf3hhOwpzjDjNfSd7o/hPR/gP4t/wCEKW2/sOfS76RHspjLG7+UysQxY91x17UAfI3/AA1J8UMZ/wCErYj1+x2+On/XOtfw/wDtffETR7pWvb201uAtlobu2RCw9A0e3+Rryjwrbx3nirRYJ4/NhlvreN43H31Mqgj8q9h/a28A+HvAnjTSl0Cyi0xL60aWe2t/lQMHwGC5wuRnoO1AH2B8L/iZpnxU8I22u6aGiDHyrm2kOWt5gAWjY98BgQe4IPtXx78Qv2jviNoXj/xRptj4kaGys9Vu7eCL7JA2yNJmVRkoTwK7X9hW+nW/8XWQRmtDHbzFuyvlwAB7g/8Ajg9K8B+LH/JVPGn/AGG77/0e9AHoPh/9rz4i6RdK95f2utQbtzw3VqiZHoGjVcfXmvrn4PfGXSfjFoEt9YRPZ3tswS7sJmDPCxGQcj7ynBw2BnB6V8q/ED4D6VpfwB8NePNJ86G+Nnay6jG0heOTzQo8xQfukO6dOMHpxXO/sveMJfCfxi0aMTMlpqjHTrhMcNvH7sfUSBee2SO9AHsH7U3xm8ZfDv4gWWm+HtabTrKTT452jFvFJly8gJy6k9FH5Vtfsm/GjXviLf6/pnibVRqN7DHHcWm6KONvLyVk+4ozgmP868w/bb/5Kpp//YJj/wDRsteY/Bfxsnw9+J2g61NKYbSO48m5bJA8mQFHJ9gDu+qLQB6l8Zv2gviD4V+KPiPSNL8RNa6faXWyGH7JA+wBQcZaMnvX0d8KfiFLP8DdO8X+KL/zZEtZri7uiipkJI44AAGcLgD1r4t/aEbd8avFx/6ffzyq8/rXsviSS6X9h3Rhb7vIaSMXRXtGLt8f+RPLB/GgDzrx/wDtTeNvF2tTzaXqk/h3S1ciCzsyquF7F3xlmxjuAM9K9I/ZV+M3jDxb48Oga5q8mq6e1lJMpuEBkVkKgYcAEjnnrXzn4Al0C38aaNJ4niabQFuEF3GhP3CcZOOSoOM49K+7/Bfwb8HaL4usvG3g/wAu2guLWSJ47KXzLaZHwRInJw3A4HHPTigDL+P3xnuvh8tto+kbE1i6i84zuu4QxZKhgOhJIbr6V4Bpvxy8caZfpdDxBc3RU5MN0fMjb2K/4Yr0b9q7wlqL67p/iRITJpxtVs5WQZMUiu5Ut6A7+PpXz8Ocd8noOv5V/N/FmaZpSzepBVJQjG3Kk2la2/nc/fuGcsy6plUJ+zjNyT5m0m731Xlb/g9T7i8F/Fiz8Q/DSXxXdL5K2cUhvYY+SkiDLAD3BBH1FfL/AIm+P3jPxFqT3EerTaXBk+Xa2R2Ko9CerfjXtHw3+FmqR/AXWdGuVNvqOteZdRwyfKYyURY1b0z5YPtu9q+V7i1ls7qW3uY2t5422PHIpVlbPQg9DXpcUZpm0cJglUk4c0LytpeXn8rO3mefw3luVyxWM9mlPllZX1tHyv53V/I+lP2f/jnqniLXYvDniK5F5PcKxs7xlAbcq7mRsDByATnjpin/AB9+O+p+G9ak8OeHZRa3ECq13e4DMrMM7FBGM4wc+/SvOv2b/CN9r3xEs9TjiZdP0pmlnlPCl9hCoPU5IJ9h70v7SHg+/wBD+IF5qssLnTtUKyw3H8IfaoZD6Ebc1p/a2cf6s+25n8dubryW7+ulyP7Lyr/WP2PKvgvy9Oe/bvbWxl+Gfj54z8O6ol1Jq82qQ8CS1vW3owHoeqn3FfZfhXxNB4t8O6fq9qhWC8hWUKxyUyOVPuDx+FfnpBbS3VxHBbxtPPI2xIo1LOzegUck195/Crw9c+FPh7oel3g2XcMA82Pj5XYlivHXBOM98V6PAOPx+Iq1qVeblTSvrrZ36PzV/uODjfA4LD0qVWjFRqN2stLq3bydtTsaKKK/aT8jCiiigD88v2rP+S+eKP8At1/9JIq8vXVLxNNawW9nXT2lEzWomYQmQAYcpnG4DFen/tWN/wAX88T9AP8ARep/6dIq95/Yl062uvhzrEk9rFK41Z1WSSMMQvkxcZP1oA8d/Zv+Ber+NvF2na5qNhNa+HdPnW5aadSn2l0bKxqp5IJ6nGKpftaWMtt8dNbkf7tzFbSx/wC6IVT+aN+VfoEE7dq+Tv23Ph7PN/ZXjO1h8yCKP7DfFesYyWic/wCzlmUnsWX14AOo/YfmVvhbrEfR11qUsCMcGCDB/Ifoa+Yvj1Osvxj8YPGQUF/IMgk8jg9fp096s/Bv446x8GZtU/s6ztr+3v4182G5LBVdAQjgg/7RyO/HIriZptS8XeIJJiJL/VtSui2EGXmnkfPygerHp/iBQB9n/sl6GNV+A1/Y3i5tNSurqLA6GNkWNv13V8j+C9Yk+HfxG0u/v4Win0i/H2iHHzKUba4I9sGv0M+Evgo/Dz4d6HoEjCSe1g/0h1bKmZiXkIPpvJxXwf8AtB6ONC+NHi23AYCW9a6Az/z1Ak/mxoAsfAjwe/jfVvE9sy+fJH4evpEZ+cSldqN7/Mwrn/C/jP8AsPwX4x0Muy/21DaqnHBaK4V8H0+QvXuf7DOjx3mu+ML51yYbS3tgOcbZWkYj/wAhCvnHxJpT+H/EmraXKQZrG7mtH29N0blD+oNAHv37DuivefEDXNUIBisdOEPTo8si7f0ik/Os/wDbX/5K5Z/9gmH/ANGy16h+w3oKWvgnxBrG395eX62+f9mKMEfrK3615h+2v/yVyy99Jh7/APTSWgDyrwb8LfFXxCtri48P6PLqkVu2yWSJ4xsYjIHzMO1fYXgzwxqng/8AZQ1bSNas2sNRt9K1PzIHYMVDGZhypPYivmL4Q/H7Wvg7p9/aaZp1jex3kqyyG7D5BC7eNrCvpvwt8VL/AOLn7PPjjWdRtLeznjtL62EdqG2bRbbgfmJ/vUAfD+lR3UupWcen7vt7TotvsOD5hbC4J6c1c8Qa5q/ijXHudf1C4utQY+VJPfM26MBvun+7j5uMUvg0/wDFYaCSFI/tC2PXIH71fevQf2oPBh8GfGDWNiqtpqmNSh2k9JCd4b/tor4A9R68AH1/8B/g/Z/CDwi1olwt/qd8yzX14mQjsB8qpn+BcnHrknvivhL4sf8AJVPGn/Ybvv8A0e9fZ/7KfxKXx18M7fTriQtqmhBbKZWPzNFj9zJ9CoK57mMmvi/4sN/xdTxpwf8AkN33Hf8A4+H5oA+svFVzDa/sU2jS4ZW0GxjVcZyS0QXA+pH5Z7V8ofCG3e5+K3g5Y95f+2rRvlHQCdGJ/DFX/Fnxl8QeLPAuh+EZ/IttE0qGOJIrdGDXBjXarSMx54zwOM49K9F/Y5+HNz4k8ff8JPMm3StFBCSEcSXDqVVR2O1csT1HycfNkAD/ANtv/kqmn/8AYJj/APRsteQ/8Il5nwxXxOhbcusPpk2DxhrdJI/pyHH1YV69+23/AMlU0730mP8A9Gy/41ufs9+CV+In7OfjzQxH5lxPqDPbBiMidIYnjOf94AZ9M0AfNutazd+INSkv76TzrqQIHk/vbUCA/kK+8vgX4fsfFf7N2h6PqcSz2N9aTwzJ6q00nQ+o657EZr8/xz/X26/4V9X33iXU/B/7IvgjV9Hu5LLULa+DRyx4PHmTgg54IPcUAeM/Gr4I6v8ABzWtk4kvNEuZCLPUgPlfP/LN/wC7JgHjoe3fHdfsdfEe+0Xx9F4TluJJNJ1ZZPJt2JKwzqhk3KP4QVDA4xnI9KxviZ+1HrPxO8Dnw7eaNY2QmdDc3MTMxcqwYbFP3Og5y3GRxmm/sj+G7nXPjPp17GdsGjxTXU7ezRtEFz7mQH/gLelAH2P8TPiFofw/0PztbBuRcExxWKoHe4OOQAeMDjk+o9RXz/4b+OHgzTdeW6f4dWdhGW/4+rcrJLF7hSgH5YqL9rRbg/EDTvNWQ2x05PJ3fc3ea+/HbP3c/wDAfavFMbfQc8Y54r8A4m4lxlHNZUqKilSdleMZN7a3abXysft/DnDuDq5ZGrVcm6qu7SaS1fRaO3nc/Q7R9este0m21axnjm0+5j8yOdTwV55OemMH6V85/EP46eCdW1hvK8FWviLYdh1C6KxeaB/dwpLL/vY+lWvhiNX/AOGafFnlrMNz3Btsnkw+Wm/b+Pm9O9fOXUkck9+mfqa7+JOJsX9TwqpQUfaxU3dJ/Jc1157X1Rw8P8OYX63iXUm5ezlyqza87vls+y3toz7U+C/xO8OeNdMm07R9Pj0O4s1DvpyhQu0/xoQBuGe+M8j1FSfGL4oeHPBOmCw1eyXWru6QtHpmFO5ezOT90Z4z9fQ4+avgCt1/wtzQPsfmEiSXzCo48ry23Zx2xjHuB6CpP2gVuf8Aha2u/aQ+C0fl+Z/zz8tcY9v/AK1af614v/V72/Iufm9ney5bWvfl2v0tt+RH+rGE/t72HO+Tl57X97e1r77633t953fw9+OXgrR9aUyeCrbw+XOwX9qVlMQP97Kghf8Ad/Kvpu1uI7y1ingkWWGRQ8ciEEMpGQQe+RX5yjtjIPb/ABFfc/wPW4X4U+Ghc5D/AGUbM/8APPJ2fht212cC55icdOpg6yVormTUVHrazUUl+Hc4+Msmw+ChTxdFu7fK02303Td366nfUUUV+wH5aFFFFAHh3xG/ZR0P4keM9R8R3mtaha3N75e6GBU2LsjSMYyM9E/Wu1+EPwjsPg9oN5pWn31xfxXN0bppLlVDBiiLj5QP7n613lFABVPUtKtdZsLmxvoIruzuEMc0EybkdT1BBq5RQB81+J/2H/Dmp6kbjRdbvNEt25+yvELlUP8AssWDD8Sa7b4T/sy+F/hTqC6rDJcavrSKVjvbzGIQRg+Wg4Ukdzk9eeTXr1FADdvfNeN/FT9mHQ/ip4rfXrvVL3T7h7dIHjtVQh9ucMdwPOCB/wABr2aigDzn4O/BHS/gza6pDpt7c3zag8byyXIUEBAQoG0D+8351wviz9jnw54s8UaprUutajayahcyXTwwrHtV3bc2MjPUn86+gKKAOT+GPw7s/hf4Ns/DtjcS3UFs8rieYASOXkZ8nHpux+Ariviz+zVo/wAXPE8Wtahq19ZTR2y2wjt1QrtDOc/MD/f/AEr2GigD5p/4YX8M/wDQxat/3xF/8TXpngv4G6b4J+HOteELbUbq5tNUE4kuJgvmJ5sYjbGBjoK9KooA+c9K/Yo8OaTqtlfJ4h1WSS1njnRXWPBZWDc/L7V3Xxi/Z/0b4y3Ol3F/fXWnXFikiCS0CEyKxBAbcD0IOMf3jXqVFAHj/wAJv2b9N+EPiKXVdN13ULvzrdraW3uAmxwWDBjgD5gV4PoT61zXiT9jPw94m8RatrE+vanFPqN3NeSJGI9qtI5YgZHTmvoWigD540f9iTwXY3azXuo6tqSDrC0qRo31KqG/IivdNC8N6b4Z0uDTdJs4dPsIBiO3t12quTkn6k9T15rTooA8g+Lf7Nuj/F7xHBrGoatfWM0VstsI7cIVKhmbPzA/3v0rofg/8ILD4O6HfaZp99c30d1dG6aS52hg2xVxwOny/rXfUUAfPfiT9jHwz4i8Qalqv9s6lZG+uZLloIVj2IzsWIGV6ZPSu1u/gDoepfCmx8B3l5ey6dZv5kV0hVJt252BPykfxnt2r0+igD5aH7COm/atx8X3htyfmj+xpvIznG7djpx0r3X4cfCvw/8ACvR20/QbZohId09zK26aducM7Y56n25PFdhRQByXxC+GWjfEjSVstUjYNExeC4jOJIWPcH0Pcd8D0FeTab+x7psGoLJfeI7i7swcmCK2ETsPQvvP6AV9DUV4GNyHLMxrLEYqipTXXVffZq/zue3g87zHAUnQw1Zxi+mn4X2+VjN0nQLPQ9Jt9MsoEt7G3Ty44UX5Qvp/OvFfE37I+j6rqUlzpOszaPBI242rQCZFz1C/MpA/OvfKK3x2T4DMqcaWKpKUY7bq3o1Zr0McHmuNy+pKrhqri5b9b+qd0zz74X/BjR/hfDcSWksl9qNwAJr24ADED+FQPur3x/8AWp3xM+DOjfEyGNrt5LPUYRtivoQN4XOdpH8S+3+Jz39FV/ZOB+qfUfZL2X8v9a389yf7Txn1r677V+179f8AhvLY8E8N/sk6RpupR3GrazNq9vG24WqweQj+znexI9hivdLe0S1hjhiVY4o1CIijAVRwAAPap6KWX5Rgcqi4YKkoX33bfzbb/EeOzTGZlJTxdRya26JfJWQUUUV655Z//9k=;" vertex="1" parent="1">
          <mxGeometry x="1400" y="591" width="206.25" height="44" as="geometry" />
        </mxCell>
        <mxCell id="4Yu0JL-Y8x3OvqKyGdus-57" value="" style="shape=image;verticalLabelPosition=bottom;labelBackgroundColor=default;verticalAlign=top;aspect=fixed;imageAspect=0;image=https://www.isc.org/images/Bind_9_ISC_Blue_320x320.png;" vertex="1" parent="1">
          <mxGeometry x="1290" y="170" width="177.49" height="137" as="geometry" />
        </mxCell>
        <mxCell id="4Yu0JL-Y8x3OvqKyGdus-58" value="" style="sketch=0;outlineConnect=0;fillColor=#666666;strokeColor=#b85450;dashed=0;verticalLabelPosition=bottom;verticalAlign=top;align=center;html=1;fontSize=12;fontStyle=0;aspect=fixed;pointerEvents=1;shape=mxgraph.aws4.rds_mariadb_instance;strokeWidth=1;" vertex="1" parent="1">
          <mxGeometry x="1430" y="760" width="140" height="140" as="geometry" />
        </mxCell>
        <mxCell id="4Yu0JL-Y8x3OvqKyGdus-60" value="" style="endArrow=classic;html=1;rounded=0;exitX=0.5;exitY=1;exitDx=0;exitDy=0;exitPerimeter=0;entryX=0.412;entryY=0.002;entryDx=0;entryDy=0;entryPerimeter=0;strokeWidth=3;" edge="1" parent="1" source="4Yu0JL-Y8x3OvqKyGdus-36" target="4Yu0JL-Y8x3OvqKyGdus-53">
          <mxGeometry width="50" height="50" relative="1" as="geometry">
            <mxPoint x="1164.38" y="650" as="sourcePoint" />
            <mxPoint x="1030" y="680" as="targetPoint" />
          </mxGeometry>
        </mxCell>
        <mxCell id="4Yu0JL-Y8x3OvqKyGdus-61" value="" style="endArrow=classic;html=1;rounded=0;exitX=0.5;exitY=1;exitDx=0;exitDy=0;exitPerimeter=0;entryX=0.412;entryY=0.002;entryDx=0;entryDy=0;entryPerimeter=0;strokeWidth=4;" edge="1" parent="1">
          <mxGeometry width="50" height="50" relative="1" as="geometry">
            <mxPoint x="1498.75" y="560" as="sourcePoint" />
            <mxPoint x="1498.75" y="760" as="targetPoint" />
          </mxGeometry>
        </mxCell>
        <mxCell id="4Yu0JL-Y8x3OvqKyGdus-62" value="" style="endArrow=classic;startArrow=classic;html=1;rounded=0;strokeWidth=3;" edge="1" parent="1" source="4Yu0JL-Y8x3OvqKyGdus-53">
          <mxGeometry width="50" height="50" relative="1" as="geometry">
            <mxPoint x="1268.75" y="828.75" as="sourcePoint" />
            <mxPoint x="1440" y="829" as="targetPoint" />
            <Array as="points">
              <mxPoint x="1300" y="829" />
            </Array>
          </mxGeometry>
        </mxCell>
        <mxCell id="4Yu0JL-Y8x3OvqKyGdus-105" value="&lt;span style=&quot;font-size: 11px;&quot;&gt;&lt;b&gt;.Txt&lt;/b&gt;&lt;/span&gt;" style="shape=note;size=20;whiteSpace=wrap;html=1;shadow=0;dashed=0;sketch=0;pointerEvents=1;align=center;verticalAlign=top;fontFamily=Helvetica;fontSize=12;fontColor=default;fillColor=#FFFFFF;" vertex="1" parent="1">
          <mxGeometry x="1550" y="120" width="80" height="99" as="geometry" />
        </mxCell>
        <mxCell id="4Yu0JL-Y8x3OvqKyGdus-106" value="" style="html=1;verticalLabelPosition=bottom;align=center;labelBackgroundColor=#ffffff;verticalAlign=top;strokeWidth=4;strokeColor=#666666;shadow=0;dashed=0;shape=mxgraph.ios7.icons.data;sketch=0;pointerEvents=1;fontFamily=Helvetica;fontSize=12;fontColor=default;fillColor=#FFFFFF;" vertex="1" parent="1">
          <mxGeometry x="1530" y="170" width="50" height="70" as="geometry" />
        </mxCell>
      </root>
    </mxGraphModel>
  </diagram>
</mxfile>
